<svg width="295" height="259" viewBox="0 0 295 259" fill="none" xmlns="http://www.w3.org/2000/svg">
<path d="M57.2397 72.5126L144.276 22.2738C146.454 21.0161 149.139 21.0161 151.317 22.2738L238.355 72.5126C240.531 73.7703 241.876 76.0934 241.876 78.6087V179.086C241.876 181.6 240.531 183.925 238.355 185.184L151.317 235.423C149.139 236.681 146.454 236.681 144.276 235.423L57.2397 185.184C55.0616 183.927 53.7192 181.602 53.7192 179.086V78.6087C53.721 76.0934 55.0634 73.7703 57.2397 72.5126Z" fill="white"/>
<path d="M93.2687 96.5677L145.569 66.3722C146.878 65.6163 148.491 65.6163 149.8 66.3722L202.102 96.5677C203.41 97.3236 204.217 98.7199 204.217 100.232V160.623C204.217 162.133 203.41 163.531 202.102 164.288L149.8 194.483C148.491 195.239 146.878 195.239 145.569 194.483L93.2687 164.288C91.9599 163.532 91.1532 162.135 91.1532 160.623V100.232C91.1543 98.7199 91.961 97.3236 93.2687 96.5677Z" fill="#4B32C3"/>
<path d="M132.014 121.709L128.23 120.816C127.955 119.862 127.581 118.951 127.111 118.1L129.151 114.798C129.464 114.292 129.387 113.639 128.967 113.219L126.781 111.033C126.362 110.614 125.709 110.537 125.203 110.85L121.902 112.89C121.05 112.42 120.139 112.046 119.186 111.771L118.293 107.986C118.156 107.409 117.64 107 117.047 107H113.955C113.361 107 112.845 107.409 112.709 107.986L111.816 111.771C110.862 112.046 109.951 112.419 109.1 112.89L105.798 110.848C105.293 110.537 104.639 110.613 104.219 111.033L102.033 113.219C101.613 113.638 101.537 114.293 101.849 114.797L103.89 118.1C103.42 118.951 103.046 119.862 102.771 120.815L98.9856 121.708C98.4087 121.845 98 122.361 98 122.955V126.046C98 126.639 98.4087 127.156 98.9857 127.292L102.771 128.185C103.047 129.139 103.42 130.049 103.89 130.9L101.848 134.203C101.537 134.709 101.613 135.362 102.033 135.782L104.219 137.968C104.638 138.388 105.293 138.464 105.797 138.152L109.1 136.11C109.952 136.58 110.863 136.954 111.816 137.229L112.709 141.014C112.845 141.592 113.361 142 113.955 142H117.047C117.64 142 118.156 141.592 118.293 141.014L119.186 137.229C120.139 136.954 121.049 136.58 121.901 136.11L125.203 138.151C125.709 138.464 126.362 138.387 126.781 137.967L128.968 135.781C129.387 135.362 129.464 134.708 129.151 134.202L127.11 130.901C127.581 130.049 127.954 129.139 128.229 128.185L132.014 127.292C132.593 127.155 133 126.64 133 126.046V122.954C133 122.361 132.592 121.845 132.014 121.709ZM115.5 127.72C113.723 127.72 112.281 126.278 112.281 124.5C112.281 122.722 113.723 121.279 115.5 121.279C117.279 121.279 118.721 122.722 118.721 124.5C118.721 126.278 117.279 127.72 115.5 127.72Z" fill="white"/>
<path d="M134.285 144.071L131.833 144.234C131.49 143.709 131.095 143.228 130.652 142.801L131.272 140.427C131.367 140.063 131.199 139.683 130.868 139.507L129.14 138.592C128.809 138.416 128.401 138.491 128.153 138.774L126.537 140.62C125.935 140.494 125.315 140.438 124.688 140.448L123.446 138.327C123.256 138.004 122.868 137.853 122.51 137.963L120.641 138.537C120.282 138.647 120.047 138.99 120.071 139.364L120.234 141.817C119.709 142.161 119.228 142.555 118.801 142.998L116.427 142.377C116.064 142.283 115.683 142.45 115.507 142.782L114.592 144.509C114.416 144.84 114.492 145.25 114.774 145.497L116.621 147.113C116.495 147.716 116.438 148.335 116.449 148.962L114.327 150.205C114.004 150.395 113.853 150.782 113.963 151.141L114.537 153.009C114.647 153.368 114.99 153.604 115.364 153.579L117.818 153.416C118.161 153.941 118.556 154.421 118.998 154.848L118.377 157.224C118.283 157.587 118.451 157.968 118.782 158.144L120.509 159.059C120.841 159.234 121.25 159.159 121.497 158.876L123.114 157.029C123.716 157.155 124.336 157.212 124.962 157.201L126.205 159.322C126.395 159.646 126.783 159.797 127.141 159.687L129.01 159.112C129.368 159.002 129.604 158.66 129.579 158.285L129.416 155.832C129.941 155.489 130.422 155.094 130.849 154.652L133.224 155.272C133.587 155.367 133.967 155.199 134.143 154.868L135.058 153.14C135.234 152.809 135.159 152.4 134.876 152.153L133.029 150.536C133.156 149.934 133.212 149.315 133.201 148.688L135.323 147.445C135.647 147.255 135.797 146.868 135.687 146.509L135.113 144.64C135.003 144.282 134.66 144.046 134.285 144.071ZM125.423 150.771C124.349 151.101 123.21 150.497 122.88 149.423C122.549 148.348 123.153 147.209 124.227 146.879C125.301 146.548 126.441 147.152 126.771 148.227C127.101 149.301 126.498 150.44 125.423 150.771Z" fill="white"/>
<path d="M115.389 155.277L113.36 155.412C113.076 154.977 112.749 154.579 112.383 154.225L112.896 152.261C112.974 151.96 112.836 151.645 112.562 151.5L111.132 150.743C110.858 150.597 110.52 150.66 110.315 150.893L108.978 152.421C108.48 152.317 107.967 152.27 107.448 152.279L106.42 150.523C106.263 150.256 105.942 150.131 105.645 150.222L104.099 150.697C103.802 150.788 103.607 151.072 103.628 151.382L103.763 153.411C103.328 153.696 102.93 154.022 102.577 154.389L100.612 153.875C100.311 153.797 99.9964 153.935 99.851 154.21L99.0935 155.639C98.9484 155.913 99.0107 156.252 99.2441 156.456L100.772 157.794C100.668 158.292 100.621 158.805 100.63 159.324L98.8746 160.352C98.6072 160.509 98.482 160.83 98.5733 161.127L99.0484 162.673C99.1396 162.969 99.4233 163.165 99.7328 163.144L101.763 163.009C102.047 163.443 102.373 163.841 102.739 164.194L102.226 166.16C102.148 166.461 102.287 166.776 102.561 166.921L103.99 167.678C104.264 167.824 104.603 167.761 104.807 167.528L106.145 165.999C106.644 166.103 107.156 166.15 107.675 166.141L108.703 167.896C108.86 168.164 109.181 168.289 109.478 168.198L111.024 167.723C111.321 167.632 111.516 167.348 111.495 167.038L111.36 165.008C111.794 164.724 112.192 164.398 112.546 164.032L114.511 164.545C114.812 164.623 115.126 164.485 115.272 164.21L116.029 162.781C116.174 162.507 116.112 162.169 115.878 161.964L114.35 160.626C114.455 160.128 114.501 159.616 114.492 159.097L116.248 158.068C116.516 157.911 116.64 157.591 116.549 157.294L116.074 155.748C115.983 155.451 115.699 155.256 115.389 155.277ZM108.056 160.82C107.167 161.093 106.225 160.594 105.951 159.705C105.678 158.816 106.178 157.873 107.066 157.6C107.955 157.326 108.898 157.826 109.171 158.715C109.445 159.604 108.945 160.547 108.056 160.82Z" fill="white"/>
<path d="M166.788 102.071L162.14 100.973C161.801 99.8022 161.342 98.6832 160.765 97.6366L163.272 93.5799C163.655 92.9586 163.561 92.1567 163.046 91.641L160.359 88.9543C159.844 88.4396 159.042 88.3456 158.421 88.7294L154.365 91.2364C153.319 90.6585 152.2 90.1997 151.028 89.861L149.931 85.211C149.763 84.5021 149.129 84 148.401 84H144.601C143.873 84 143.239 84.5021 143.071 85.211L141.973 89.861C140.802 90.1997 139.683 90.6575 138.637 91.2364L134.58 88.7277C133.959 88.3456 133.157 88.4387 132.641 88.9543L129.954 91.6401C129.439 92.1557 129.346 92.9594 129.728 93.579L132.236 97.6366C131.658 98.6832 131.2 99.8022 130.862 100.973L126.211 102.07C125.502 102.239 125 102.872 125 103.601V107.4C125 108.128 125.502 108.763 126.211 108.93L130.862 110.028C131.2 111.199 131.658 112.317 132.236 113.363L129.728 117.421C129.346 118.042 129.439 118.845 129.954 119.361L132.64 122.047C133.156 122.562 133.959 122.656 134.579 122.272L138.637 119.764C139.684 120.342 140.803 120.8 141.973 121.138L143.071 125.788C143.239 126.499 143.873 127 144.601 127H148.401C149.129 127 149.763 126.499 149.931 125.788L151.028 121.138C152.199 120.8 153.318 120.342 154.364 119.764L158.421 122.272C159.042 122.655 159.844 122.561 160.36 122.046L163.047 119.359C163.561 118.844 163.655 118.042 163.272 117.42L160.764 113.364C161.343 112.318 161.8 111.199 162.139 110.028L166.789 108.93C167.5 108.762 168 108.129 168 107.4V103.6C168 102.873 167.499 102.239 166.788 102.071ZM146.501 109.456C144.317 109.456 142.545 107.684 142.545 105.5C142.545 103.315 144.317 101.543 146.501 101.543C148.685 101.543 150.457 103.315 150.457 105.5C150.457 107.684 148.685 109.456 146.501 109.456Z" fill="white"/>
<path d="M174.649 102.094C172.189 101.683 170.791 101.878 170.791 101.878C170.102 101.839 169.442 102.195 169.1 102.793C168.755 103.399 168.777 104.136 169.165 104.72L170.889 107.312L180.711 121.987C182.597 124.82 180.227 128.097 178.553 130.819L173.094 139.445C172.523 140.342 171.596 140.949 170.545 141.108L160.855 142.585C157.644 143.2 153.75 143.997 151.864 141.165L141.809 126.143L140.172 123.678C139.788 123.104 139.113 122.791 138.431 122.872C137.744 122.956 137.167 123.417 136.929 124.063C136.929 124.063 136.091 125.49 135.474 128.038C133.923 134.456 134.205 141.383 136.681 148.035C140.177 157.406 147.336 164.352 155.938 167.839C163.58 170.934 169.372 170.391 174.719 179.901C174.782 179.897 174.84 179.894 174.896 179.887C179.374 179.396 183.759 178.194 187.904 176.33C192.049 174.465 195.857 171.981 199.195 168.956C199.87 168.344 200.532 167.703 201.171 167.048C197.952 157.701 199.855 152.144 202.469 143.707C204.395 137.475 203.645 130.527 201.2 123.968C196.756 112.043 186.379 104.055 174.649 102.094Z" fill="white"/>
<path d="M283.667 124.074L221.178 15.361C218.908 11.4302 214.715 8.53076 210.176 8.53076H85.1956C80.6558 8.53076 76.4615 11.4302 74.1916 15.361L11.7024 123.835C9.43252 127.766 9.43252 132.728 11.7024 136.66L74.1916 244.483C76.4615 248.413 80.6558 250.423 85.1956 250.423H210.175C214.714 250.423 218.908 248.474 221.177 244.542L283.666 136.544C285.938 132.614 285.938 128.005 283.667 124.074ZM231.923 176.351C231.923 177.949 230.961 179.428 229.575 180.228L149.977 226.152C148.593 226.951 146.859 226.951 145.474 226.152L65.815 180.228C64.4306 179.428 63.462 177.95 63.462 176.351V84.5022C63.462 82.9029 64.4166 81.4257 65.8021 80.6255L145.397 34.7016C146.781 33.9014 148.513 33.9014 149.897 34.7016L229.562 80.6255C230.948 81.4257 231.923 82.9029 231.923 84.5022V176.351Z" fill="#4B32C3"/>
</svg>
